HIERARCHY
ROOT Hips
{
	OFFSET 0.000000 0.000000 0.000000
	CHANNELS 6 Xposition Yposition Zposition Zrotation Yrotation Xrotation 
	JOINT LHipJoint
	{
		OFFSET 0.000000 0.000000 0.000000
		CHANNELS 3 Zrotation Yrotation Xrotation
		JOINT LeftUpLeg
		{
			OFFSET 1.363060 -1.794630 0.839290
			CHANNELS 3 Zrotation Yrotation Xrotation
			JOINT LeftLeg
			{
				OFFSET 2.448110 -6.726130 0.000000
				CHANNELS 3 Zrotation Yrotation Xrotation
				JOINT LeftFoot
				{
					OFFSET 2.562200 -7.039590 0.000000
					CHANNELS 3 Zrotation Yrotation Xrotation
					JOINT LeftToeBase
					{
						OFFSET 0.157640 -0.433110 2.322550
						CHANNELS 3 Zrotation Yrotation Xrotation
						End Site
						{
							OFFSET 0.000000 0.000000 0.000000
						}
					}
				}
			}
		}
	}
	JOINT RHipJoint
	{
		OFFSET 0.000000 0.000000 0.000000
		CHANNELS 3 Zrotation Yrotation Xrotation
		JOINT RightUpLeg
		{
			OFFSET -1.305520 -1.794630 0.839290
			CHANNELS 3 Zrotation Yrotation Xrotation
			JOINT RightLeg
			{
				OFFSET -2.542530 -6.985550 0.000000
				CHANNELS 3 Zrotation Yrotation Xrotation
				JOINT RightFoot
				{
					OFFSET -2.568260 -7.056230 0.000000
					CHANNELS 3 Zrotation Yrotation Xrotation
					JOINT RightToeBase
					{
						OFFSET -0.164730 -0.452590 2.363150
						CHANNELS 3 Zrotation Yrotation Xrotation
						End Site
						{
							OFFSET 0.000000 0.000000 0.000000
						}
					}
				}
			}
		}
	}
}
MOTION
Frames: 13
Frame Time: 0.008333
4.937943 15.582147 -2.225053 -176.274218 40.809262 -151.198562 -12.941305 0.277762 -2.762861 -3.696514 -0.755991 -14.749134 -1.726569 2.056951 44.368470 1.981799 7.437103 -27.399780 -3.094000 0.000001 -50.295400 6.541614 1.136799 -0.496780 9.738541 5.087377 -66.873880 1.882604 -4.579204 49.976324 1.636780 11.930603 -2.394522 1.169500 0.000000 -40.646000
5.058557 15.572152 -2.298113 -176.223634 40.098678 -151.124292 -13.088277 0.318227 -2.790316 -3.110343 -0.497565 -15.637088 -1.542248 2.278781 46.356583 1.831997 7.351929 -25.679519 -2.749201 0.000000 -52.839400 6.527848 1.117829 -0.599598 10.010829 4.968839 -66.871113 1.815025 -4.660716 51.301607 1.508678 11.282561 -3.774662 0.875000 -0.000000 -39.135100
5.176116 15.565317 -2.369354 -176.186058 39.382475 -151.028671 -13.227389 0.342406 -2.806489 -2.558390 -0.321910 -16.611151 -1.336101 2.494802 48.380657 1.710468 7.368480 -23.921539 -2.439300 0.000000 -54.377500 6.511014 1.093404 -0.693110 10.282688 4.867779 -66.819406 1.761686 -4.725481 52.437224 1.370279 10.585742 -5.114424 0.617300 0.000000 -38.064400
5.290831 15.561406 -2.438626 -176.175499 38.670013 -150.926058 -13.353961 0.350316 -2.813332 -2.062083 -0.226392 -17.643179 -1.117354 2.700088 50.407583 1.622612 7.489989 -22.209991 -2.172000 -0.000000 -54.677700 6.495327 1.067517 -0.777402 10.534197 4.779787 -66.719522 1.717491 -4.774393 53.388705 1.227454 9.876380 -6.349367 0.407800 -0.000000 -37.455699
5.402858 15.560109 -2.506069 -176.194473 37.959551 -150.819094 -13.466568 0.341386 -2.810946 -1.626505 -0.200651 -18.726582 -0.893752 2.892097 52.424143 1.570192 7.717176 -20.616281 -1.950599 -0.000000 -53.576900 6.483185 1.041300 -0.852256 10.759774 4.695748 -66.584075 1.680135 -4.810553 54.178026 1.086365 9.187888 -7.453298 0.246100 -0.000000 -37.097800
5.512240 15.561193 -2.571772 -176.247244 37.258884 -150.715640 -13.563102 0.316646 -2.802883 -1.263713 -0.228499 -19.844329 -0.674927 3.069110 54.407140 1.553402 8.048923 -19.223560 -1.779700 0.000000 -51.161900 6.477089 1.017711 -0.918248 10.947303 4.611278 -66.419459 1.646458 -4.835812 54.826070 0.952202 8.543032 -8.406764 0.127900 0.000000 -36.952600
5.619020 15.564418 -2.635943 -176.332640 36.571615 -150.617673 -13.643424 0.277282 -2.792060 -0.976751 -0.289732 -20.989668 -0.468020 3.231273 56.342614 1.570065 8.483001 -18.093415 -1.662199 -0.000000 -47.585400 6.478135 0.998008 -0.976092 11.093905 4.521093 -66.235387 1.615213 -4.852701 55.359147 0.828584 7.957056 -9.217266 0.044300 0.000000 -36.890800
5.723193 15.569585 -2.698780 -176.446805 35.899021 -150.525530 -13.708306 0.224244 -2.781189 -0.763852 -0.364075 -22.161101 -0.279512 3.380039 58.224763 1.617000 9.011825 -17.294445 -1.604699 -0.000000 -42.894500 6.486208 0.982075 -1.026691 11.203683 4.420164 -66.041865 1.586475 -4.863832 55.803319 0.716994 7.436107 -9.909674 -0.013900 -0.000000 -36.795500
5.824668 15.576669 -2.760469 -176.584483 35.248007 -150.440001 -13.758815 0.159654 -2.773980 -0.625452 -0.429246 -23.351406 -0.110620 3.516767 60.030672 1.690332 9.633541 -16.807302 -1.604901 -0.000000 -37.780300 6.500790 0.971054 -1.071739 11.278006 4.307957 -65.841762 1.560173 -4.870447 56.178726 0.616701 6.975982 -10.513174 -0.054700 -0.000000 -36.647100
5.923354 15.585541 -2.821165 -176.738617 34.618631 -150.359593 -13.796720 0.084445 -2.772531 -0.554522 -0.468247 -24.560185 0.036958 3.643556 61.754738 1.786523 10.335923 -16.639987 -1.667000 -0.000000 -32.400900 6.520243 0.963506 -1.112956 11.328589 4.181543 -65.639298 1.537812 -4.874315 56.503324 0.525490 6.568224 -11.066792 -0.084300 -0.000000 -36.376300
6.019269 15.596266 -2.880932 -176.905585 34.017190 -150.285380 -13.823024 0.000875 -2.779204 -0.549769 -0.467445 -25.781263 0.165565 3.761749 63.379731 1.901964 11.109384 -16.722300 -1.784600 -0.000000 -27.443700 6.543489 0.959942 -1.152132 11.360326 4.042173 -65.432881 1.519909 -4.875675 56.786930 0.440091 6.198330 -11.600903 -0.106400 -0.000001 -36.033400
6.112266 15.608792 -2.939897 -177.076441 33.442460 -150.215671 -13.839467 -0.090181 -2.795315 -0.603126 -0.417031 -27.011896 0.276447 3.872974 64.901483 2.032851 11.933591 -17.014213 -1.955100 -0.000000 -23.085500 6.568508 0.958428 -1.191303 11.386137 3.888835 -65.219558 1.508187 -4.875196 57.035545 0.357116 5.852869 -12.144723 -0.123300 0.000000 -35.606601
6.202354 15.623127 -2.998082 -177.248850 32.897708 -150.152506 -13.846436 -0.186624 -2.822511 -0.713825 -0.310743 -28.246631 0.370847 3.978447 66.313333 2.175158 12.786041 -17.464943 -2.172900 -0.000000 -19.463001 6.594501 0.958870 -1.231778 11.410465 3.722840 -64.994050 1.502919 -4.872445 57.248975 0.273654 5.518387 -12.711256 -0.135200 0.000001 -35.158900
